<svg width="368px" height="209px" viewBox="0 0 368 209" version="1.1" xmlns="http://www.w3.org/2000/svg" xmlns:xlink="http://www.w3.org/1999/xlink">
    <defs>
        <path d="M48,24 C48,37.254 37.2552,48 24,48 C10.746,48 0,37.254 0,24 C0,10.7436 10.746,0 24,0 C37.2552,0 48,10.7436 48,24 L48,24 Z" id="path-3"></path>
        <mask id="mask-4" maskContentUnits="userSpaceOnUse" maskUnits="objectBoundingBox" x="0" y="0" width="48" height="48" fill="white">
            <use xlink:href="#path-3"></use>
        </mask>
    </defs>
    <g id="slice" stroke="none" stroke-width="1" fill="none" fill-rule="evenodd">
        <g id="Desktop-HD" transform="translate(-514.000000, -103.000000)">
            <g id="Group-8" transform="translate(514.000000, 103.000000)">
                <g id="Group-2-Copy-3" transform="translate(0.000000, 0.000000)">
                    <path d="M48,24 C48,37.254 37.2552,48 24,48 C10.746,48 0,37.254 0,24 C0,10.7436 10.746,0 24,0 C37.2552,0 48,10.7436 48,24 L48,24 Z" id="Fill-5-Copy-3" fill="#2A9CD5"></path>
                    <path d="M20.0263415,35.4837073 L18.5851707,35.4837073 C17.1276098,35.3361951 15.1162927,35.2343415 14.4934634,34.2169756 C14.2780488,33.8645854 14.2909268,33.0837073 14.5133659,32.688 C14.8435122,32.1038049 15.595122,31.9410732 16.4673171,31.8204878 C15.608,31.1414634 14.8107317,30.3980488 14.3494634,29.3069268 C14.2757073,29.1313171 14.1925854,28.9463415 14.1235122,28.7625366 C14.0520976,28.5763902 14.0251707,28.3797073 13.9162927,28.1994146 C13.7278049,28.3492683 13.6669268,28.625561 13.5463415,28.8433171 C13.2981463,29.1348293 12.9047805,29.6277073 12.4786341,29.8290732 C12.3299512,29.9016585 12.0665366,30.0081951 11.9014634,29.9707317 C11.5795122,29.8969756 11.5139512,29.1957073 11.4507317,28.782439 L11.4507317,27.7580488 C11.785561,25.1157073 13.1869268,23.5153171 14.8833171,22.2029268 C14.6152195,21.4829268 14.9348293,20.670439 15.2743415,20.2314146 C15.2614634,19.8087805 15.4183415,19.2257561 15.686439,18.9447805 C15.7098537,17.5480976 16.1079024,16.416 16.6932683,15.504 C17.7492683,13.854439 18.950439,12.5139512 20.9921951,11.8606829 C23.0292683,11.2097561 25.9373659,11.2682927 27.817561,12.0632195 C28.8232195,12.4846829 29.6228293,12.9201951 30.2866341,13.571122 C31.3285854,14.5896585 31.9361951,15.7978537 32.3646829,17.4345366 C32.4325854,17.6979512 32.491122,17.9742439 32.5274146,18.2599024 C32.5625366,18.5244878 32.569561,18.8359024 32.6515122,19.1063415 C32.7545366,19.4388293 33.0870244,19.7432195 33.2263415,20.1506341 C33.464,20.8366829 33.4967805,21.569561 33.1654634,22.1830244 C33.8058537,23.0868293 34.388878,24.0749268 34.9543415,25.3416585 C35.4120976,26.3683902 35.7972683,28.2649756 35.2634146,29.4684878 C35.1334634,29.7623415 34.8197073,30.1674146 34.502439,30.1709268 C34.1383415,30.1779512 33.8842927,29.7623415 33.7016585,29.4883902 C33.4839024,29.1676098 33.3047805,28.8632195 33.145561,28.5412683 C32.8411707,28.9170732 32.7276098,29.4251707 32.5086829,29.8899512 C32.1972683,30.5432195 31.7465366,31.1157073 31.2524878,31.601561 C31.7945366,31.8989268 32.4056585,32.1611707 32.8973659,32.5463415 C33.211122,32.7921951 33.6314146,33.137561 33.5166829,33.7147317 C33.451122,34.0261463 33.1678049,34.337561 32.9395122,34.4979512 C31.4023415,35.5867317 27.7719024,35.4474146 25.7418537,34.7812683 C25.5475122,34.7157073 25.3449756,34.6630244 25.1447805,34.5986341 C24.9598049,34.5389268 24.7642927,34.4241951 24.5898537,34.398439 C24.4446829,34.3738537 24.2199024,34.3890732 24.0349268,34.3785366 C23.8323902,34.3633171 23.593561,34.3223415 23.4999024,34.337561 C23.3980488,34.3539512 23.2540488,34.4897561 23.1299512,34.5588293 C22.2612683,35.0505366 21.2930732,35.4450732 20.0263415,35.4837073" id="Fill-4" fill="#FFFFFF"></path>
                </g>
            </g>
        </g>
    </g>
</svg>