<svg width="368px" height="209px" viewBox="0 0 368 209" version="1.1" xmlns="http://www.w3.org/2000/svg" xmlns:xlink="http://www.w3.org/1999/xlink">
    <defs>
        <path d="M48,24 C48,37.254 37.2552,48 24,48 C10.746,48 0,37.254 0,24 C0,10.7436 10.746,0 24,0 C37.2552,0 48,10.7436 48,24 L48,24 Z" id="path-7"></path>
        <mask id="mask-8" maskContentUnits="userSpaceOnUse" maskUnits="objectBoundingBox" x="0" y="0" width="48" height="48" fill="white">
            <use xlink:href="#path-7"></use>
        </mask>
    </defs>
    <g id="slice" stroke="none" stroke-width="1" fill="none" fill-rule="evenodd">
        <g id="Desktop-HD" transform="translate(-514.000000, -103.000000)">
            <g id="Group-8" transform="translate(514.000000, 103.000000)">
                <g id="Group-3-Copy" transform="translate(0.000000, 0.000000)">
                    <path d="M48,24 C48,37.254 37.2552,48 24,48 C10.746,48 0,37.254 0,24 C0,10.7436 10.746,0 24,0 C37.2552,0 48,10.7436 48,24 L48,24 Z" id="Fill-5-Copy" fill="#00BB00"></path>
                    <path d="M18.128058,17.4539565 C18.128058,17.0803349 18.0141503,16.7796194 17.7863318,16.5518009 C17.5585103,16.3239794 17.2577948,16.2100717 16.8841732,16.2100717 C16.4923242,16.2100717 16.146045,16.3262574 15.8453234,16.558635 C15.5446018,16.7910095 15.3942456,17.089447 15.3942456,17.4539565 C15.3942456,17.8093539 15.5446018,18.1032384 15.8453234,18.3356129 C16.146045,18.5679874 16.4923242,18.6841732 16.8841732,18.6841732 C17.2577948,18.6841732 17.5585103,18.5725435 17.7863318,18.3492811 C18.0141503,18.1260187 18.128058,17.8275812 18.128058,17.4539565 L18.128058,17.4539565 Z M28.2841716,24.3841724 C28.2841716,24.1290175 28.1679859,23.9012021 27.9356114,23.7007201 C27.7032338,23.500238 27.4047963,23.4000015 27.0402868,23.4000015 C26.794241,23.4000015 26.5687037,23.5025191 26.3636686,23.7075542 C26.1586304,23.9125923 26.0561129,24.1381297 26.0561129,24.3841724 C26.0561129,24.6393303 26.1586304,24.8694237 26.3636686,25.0744619 C26.5687037,25.279497 26.794241,25.3820145 27.0402868,25.3820145 C27.4047963,25.3820145 27.7032338,25.281775 27.9356114,25.081296 C28.1679859,24.8808139 28.2841716,24.6484424 28.2841716,24.3841724 L28.2841716,24.3841724 Z M25.0582738,17.4539565 C25.0582738,17.0803349 24.9466442,16.7796194 24.7233818,16.5518009 C24.5001194,16.3239794 24.2016789,16.2100717 23.8280572,16.2100717 C23.4362082,16.2100717 23.0899291,16.3262574 22.7892075,16.558635 C22.4884859,16.7910095 22.3381297,17.089447 22.3381297,17.4539565 C22.3381297,17.8093539 22.4884859,18.1032384 22.7892075,18.3356129 C23.0899291,18.5679874 23.4362082,18.6841732 23.8280572,18.6841732 C24.2016789,18.6841732 24.5001194,18.5725435 24.7233818,18.3492811 C24.9466442,18.1260187 25.0582738,17.8275812 25.0582738,17.4539565 L25.0582738,17.4539565 Z M33.7381281,24.3841724 C33.7381281,24.1290175 33.6196644,23.9012021 33.3827338,23.7007201 C33.1458001,23.500238 32.8496407,23.4000015 32.4942433,23.4000015 C32.2481975,23.4000015 32.0226602,23.5025191 31.8176251,23.7075542 C31.6125869,23.9125923 31.5100694,24.1381297 31.5100694,24.3841724 C31.5100694,24.6393303 31.6125869,24.8694237 31.8176251,25.0744619 C32.0226602,25.279497 32.2481975,25.3820145 32.4942433,25.3820145 C32.8496407,25.3820145 33.1458001,25.281775 33.3827338,25.081296 C33.6196644,24.8808139 33.7381281,24.6484424 33.7381281,24.3841724 L33.7381281,24.3841724 Z M30.1021571,18.9575553 C29.8196628,18.9211037 29.5007201,18.9028795 29.1453227,18.9028795 C27.6052662,18.9028795 26.188254,19.2537147 24.8942433,19.9553974 C23.6002326,20.6570801 22.5818974,21.6070682 21.8392071,22.8053955 C21.0965198,24.0037228 20.7251793,25.3136613 20.7251793,26.735251 C20.7251793,27.4460458 20.8299748,28.1386072 21.039569,28.8129504 C20.7206201,28.8402868 20.4107925,28.8539581 20.1100709,28.8539581 C19.8731403,28.8539581 19.6453249,28.847124 19.4266186,28.8334527 C19.2079123,28.8197845 18.9573166,28.790167 18.6748192,28.7446034 C18.3923249,28.6990397 18.1895679,28.6671472 18.066545,28.6489199 C17.9435252,28.6306957 17.6952044,28.5828539 17.3215828,28.5053947 C16.947958,28.4279386 16.7201426,28.3800969 16.6381304,28.3618696 L13.179856,30.0978429 L14.164029,27.1179847 C11.5213296,25.2680976 10.2,23.0355042 10.2,20.4201434 C10.2,18.88009 10.64424,17.4630778 11.5327339,16.1690671 C12.4212274,14.8750534 13.6240926,13.8567182 15.1413657,13.1140309 C16.6586388,12.3713406 18.3148596,12 20.1100709,12 C21.7139154,12 23.228889,12.3007185 24.6550347,12.9021587 C26.0811804,13.5036018 27.2749332,14.3351293 28.2363299,15.3967624 C29.1977266,16.4583986 29.8196628,17.6453173 30.1021571,18.9575553 L30.1021571,18.9575553 Z M38.1942426,26.6258993 C38.1942426,27.6920916 37.8821369,28.7104268 37.2579134,29.6809355 C36.6336899,30.6514443 35.7884943,31.5330885 34.7223021,32.3258995 L35.4740984,34.8 L32.7539542,33.3100722 C31.3870435,33.6472441 30.3937666,33.8158273 29.7740992,33.8158273 C28.2340427,33.8158273 26.8170305,33.4946077 25.5230198,32.8521584 C24.2290091,32.2097091 23.2106739,31.3371747 22.4679836,30.2345339 C21.7252963,29.1318901 21.3539558,27.9290252 21.3539558,26.6258993 C21.3539558,25.3227765 21.7252963,24.1199115 22.4679836,23.0172677 C23.2106739,21.9146239 24.2290091,21.0420889 25.5230198,20.3996411 C26.8170305,19.7571934 28.2340427,19.4359725 29.7740992,19.4359725 C31.2412525,19.4359725 32.6218161,19.7571934 33.9158268,20.3996411 C35.2098375,21.0420889 36.246397,21.916902 37.0255389,23.0241018 C37.8046777,24.1313017 38.1942426,25.3318886 38.1942426,26.6258993 L38.1942426,26.6258993 Z" id="Page-1" fill="#FFFFFF"></path>
                </g>
            </g>
        </g>
    </g>
</svg>