<?xml version="1.0" standalone="no"?><!DOCTYPE svg PUBLIC "-//W3C//DTD SVG 1.1//EN" "http://www.w3.org/Graphics/SVG/1.1/DTD/svg11.dtd"><svg t="1776086534309" class="icon" viewBox="0 0 1024 1024" version="1.1" xmlns="http://www.w3.org/2000/svg" p-id="7811" width="16" height="16" xmlns:xlink="http://www.w3.org/1999/xlink"><path d="M953.6 505.6c-12.8-230.4-204.8-409.6-435.2-409.6S96 275.2 83.2 505.6v64c19.2 224 204.8 403.2 435.2 403.2s416-179.2 435.2-403.2h6.4l-6.4-64z m-192-262.4L614.4 396.8c-19.2-12.8-38.4-25.6-64-25.6V160c83.2 6.4 153.6 38.4 211.2 83.2zM486.4 160v211.2c-25.6 6.4-44.8 12.8-64 25.6L275.2 243.2c57.6-44.8 134.4-76.8 211.2-83.2z m-256 134.4l140.8 140.8c-12.8 19.2-25.6 44.8-32 70.4h-192c6.4-83.2 32-153.6 83.2-211.2zM147.2 569.6h192c6.4 25.6 19.2 44.8 32 70.4l-134.4 134.4c-51.2-57.6-83.2-128-89.6-204.8z m134.4 249.6l134.4-134.4c19.2 12.8 44.8 25.6 70.4 25.6v192c-76.8-6.4-147.2-38.4-204.8-83.2zM518.4 640c-57.6 0-108.8-51.2-108.8-108.8 0-57.6 51.2-108.8 108.8-108.8 57.6 0 108.8 51.2 108.8 108.8-6.4 57.6-51.2 108.8-108.8 108.8z m32 262.4v-192c25.6-6.4 44.8-12.8 64-32l140.8 140.8c-57.6 44.8-128 76.8-204.8 83.2z m249.6-128l-140.8-140.8c12.8-19.2 19.2-38.4 25.6-64h204.8c-6.4 76.8-38.4 147.2-89.6 204.8z m-115.2-268.8c-6.4-19.2-12.8-44.8-25.6-64l147.2-147.2c44.8 57.6 76.8 134.4 83.2 211.2h-204.8z" fill="#2c2c2c" p-id="7812"></path></svg>